<?xml version="1.0" encoding="utf-8"?><!-- Generator: Adobe Illustrator 18.1.1, SVG Export Plug-In . SVG Version: 6.00 Build 0)  --><svg xmlns="http://www.w3.org/2000/svg" xmlns:xlink="http://www.w3.org/1999/xlink" viewBox="0 0 50 50" width="50px" height="50px"><path fill="#fff" stroke="#000000" stroke-width="2" stroke-linecap="round" stroke-linejoin="round" stroke-miterlimit="10" d="M13.8,44.6L11,39c-0.3-0.7-1-2.4-1-4.1c0-4.9,4-5.9,4-5.9V6.9C14,5,15.6,4,17,4s3,1,3,3v16v-2c0-1.4,1.1-3,3-3s3,1.6,3,3c0,0,0,1.5,0,1l0,0c0-1.4,0.7-3,3-3c2,0,3,2.2,3,5l0,0l0,0c0-1.4,0.5-3,3-3s3,2.6,3,4v16c0,4.4-3.6,8-8,8h-9.1C17.9,49,15.1,47.3,13.8,44.6z"/><line fill="none" stroke="#000000" stroke-width="2" stroke-linecap="round" stroke-linejoin="round" stroke-miterlimit="10" x1="22" y1="40" x2="22" y2="31"/><line fill="none" stroke="#000000" stroke-width="2" stroke-linecap="round" stroke-linejoin="round" stroke-miterlimit="10" x1="27" y1="40" x2="27" y2="31"/><line fill="none" stroke="#000000" stroke-width="2" stroke-linecap="round" stroke-linejoin="round" stroke-miterlimit="10" x1="32" y1="40" x2="32" y2="31"/></svg>